<svg xmlns="http://www.w3.org/2000/svg" version="1.1" xmlns:xlink="http://www.w3.org/1999/xlink" xmlns:svgjs="http://svgjs.dev/svgjs" width="1000" height="964" viewBox="0 0 1000 964"><g transform="matrix(1,0,0,1,0.039421877431550456,0.3910041058644538)"><svg viewBox="0 0 256 247" data-background-color="#ffffff" preserveAspectRatio="xMidYMid meet" height="964" width="1000" xmlns="http://www.w3.org/2000/svg" xmlns:xlink="http://www.w3.org/1999/xlink"><g id="tight-bounds" transform="matrix(1,0,0,1,-0.010092000622478281,-0.09997365579206985)"><svg viewBox="0 0 256.02016688172046 247.2" height="247.2" width="256.02016688172046"><g><svg viewBox="0 0 256.02016688172046 247.2" height="247.2" width="256.02016688172046"><g><svg viewBox="0 0 256.02016688172046 247.2" height="247.2" width="256.02016688172046"><g><svg viewBox="0 0 256.02016688172046 247.2" height="247.2" width="256.02016688172046"><g><svg viewBox="0 0 256.02016688172046 247.2" height="247.2" width="256.02016688172046"><path d="M255.421 53.02C254.217 27.36 250.787 20.227 250.787 20.227 240.255-6.202 227.112-0.506 215.305 3.292 194.458 3.446 173.696 9.091 152.898 12.119 109.243 12.581 65.215 4.986 21.777 23.717 17.697 29.464-4.233 24.846 0.726 56.304 2.026 69.39 6.768 83.913 6.623 95.922 7.273 98.026 8.176 93.202 8.561 96.23 9.909 104.39 12.112 100.541 13.917 105.365 11.402 118.246 13.207 128.971 14.928 140.21 11.895 143.135 8.008 141.749 6.262 151.449 6.082 158.479 5.107 157.145 4.036 156.837 3.253 156.632 1.677 157.402 1.941 159.608 2.844 167.152-1.031 171.514 1.4 178.904-0.273 186.91 2.555 193.838 2.17 202.511 2.122 204.255 2.387 205.744 2.808 206.154 4.674 208.361 1.953 212.672 2.242 217.342 21.38 249.262 42.142 227.195 61.749 241.872 66.84 231.608 63.012 245.516 65.046 243.36 66.635 240.846 67.791 251.263 69.584 245.362 69.861 243.668 69.44 239.665 70.427 240.435 70.944 240.846 71.401 240.743 71.474 238.382 71.582 234.841 70.631 237.048 70.378 235.201 73.111 225.861 72.437 248.081 75 247.158 74.88 244.438 74.134 240.538 75.662 241.051 77.179 237.151 77.227 233.918 78.575 242.693 78.623 244.592 78.864 245.926 79.249 246.85 83.462 237.305 87.65 250.237 92.067 245.926 94.776 241.205 97.375 248.492 100.12 246.696 101.082 245.259 102.057 242.693 102.984 247.004 114.334 247.928 126.43 244.079 137.191 247.158 165.945 241.41 196.673 249.518 226.992 241.923 234.141 238.998 241.567 234.841 248.536 231.506 248.536 231.506 254.181 222.371 254.181 181.316S255.385 145.393 255.565 112.703C255.746 80.013 256.588 78.679 255.385 53.02Z" opacity="1" fill="#e20f00" data-fill-palette-color="tertiary"></path><g transform="matrix(1,0,0,1,55.76832000000002,26.230666666666668)"><svg width="144.48352688172042" viewBox="4 -34.099998474121094 25.299999237060547 34.099998474121094" height="194.73866666666666" data-palette-color="#ffffff"><path d="M4 0L4-34.1 12.45-34.1Q17.7-34.1 21.5-32.08 25.3-30.05 27.3-26.2 29.3-22.35 29.3-17L29.3-17Q29.3-9 24.85-4.5 20.4 0 12.45 0L12.45 0 4 0ZM7.75-3.4L12.35-3.4Q18.45-3.4 21.9-6.75 25.35-10.1 25.35-17L25.35-17Q25.35-23.95 21.9-27.3 18.45-30.65 12.35-30.65L12.35-30.65 7.75-30.65 7.75-3.4Z" opacity="1" transform="matrix(1,0,0,1,0,0)" fill="#ffffff" class="undefined-text-0" data-fill-palette-color="quaternary" id="text-0"></path></svg></g></svg></g></svg></g></svg></g><g></g></svg></g><defs></defs></svg><rect width="256.02016688172046" height="247.2" fill="none" stroke="none" visibility="hidden"></rect></g></svg></g></svg>